<svg xmlns="http://www.w3.org/2000/svg" width="26" height="26" viewBox="0 0 26 26">
  <g id="icon" transform="translate(-42 -179)">
    <rect id="area" width="26" height="26" transform="translate(42 179)" fill="none"/>
    <g id="icon-2" data-name="icon" transform="translate(42.795 173.18)">
      <path id="패스_21" data-name="패스 21" d="M2.2,18.82l10-10,10,10" fill="none" stroke="#fff" stroke-linecap="round" stroke-linejoin="round" stroke-width="1.4"/>
      <path id="패스_22" data-name="패스 22" d="M52.687,102.174c.028-.025,4.385-4.018,4.915-5.338a2.584,2.584,0,0,0-4.8-1.924,1.805,1.805,0,0,0-.064.2,1.721,1.721,0,0,0-.054-.175,2.584,2.584,0,0,0-4.828,1.846C48.369,98.117,52.687,102.174,52.687,102.174Z" transform="translate(-40.529 -75.257)" fill="none" stroke="#fff" stroke-linecap="round" stroke-linejoin="round" stroke-width="1.4"/>
      <path id="패스_23" data-name="패스 23" d="M24.018,101.628v9H28.83a2.072,2.072,0,0,0,1.46-.6l1.31-1.3" transform="translate(-19.437 -81.808)" fill="none" stroke="#fff" stroke-linecap="round" stroke-linejoin="round" stroke-width="1.4"/>
      <path id="패스_37" data-name="패스 37" d="M0,10V1" transform="translate(19.838 18.82)" fill="none" stroke="#fff" stroke-linecap="round" stroke-width="1.4"/>
      <path id="패스_24" data-name="패스 24" d="M93.625,174.966l1.41,1.336a2.071,2.071,0,0,0,1.424.567H101.3" transform="translate(-81.463 -148.049)" fill="none" stroke="#fff" stroke-linecap="round" stroke-linejoin="round" stroke-width="1.4"/>
      <line id="선_5" data-name="선 5" x1="3.898" y2="3.828" transform="translate(11.205 24.04)" fill="none" stroke="#fff" stroke-linecap="round" stroke-linejoin="round" stroke-width="1.4"/>
    </g>
  </g>
</svg>
